PathFileType	4	(X/Y/Z)	s08c0401.trc
DataRate	CameraRate	NumFrames	NumMarkers	Units	OrigDataRate	OrigDataStartFrame	OrigNumFrames
200	200	5	50	mm	200	500	2000
Frame#	Time	racr			lacr			c7			jug			rlel			rdr			llel			ldr			s2			lic			ric			lasi			rasi			rpsi			lpsi			rgt			lgt			rth1			rth2			rth3			rth4			rlfc			rmfc			rsh1			rsh2			rsh3			rsh4			rlmal			rmmal			rcal			rtoe			rmt5			lth1			lth2			lth4			lth3			llfc			lmfc			llmal			lmmal			lcal			lmt5			lsh1			lsh2			lsh3			lsh4			ltoe			SBIKE			LBIKE			RBIKE			
		X1	Y1	Z1	X2	Y2	Z2	X3	Y3	Z3	X4	Y4	Z4	X5	Y5	Z5	X6	Y6	Z6	X7	Y7	Z7	X8	Y8	Z8	X9	Y9	Z9	X10	Y10	Z10	X11	Y11	Z11	X12	Y12	Z12	X13	Y13	Z13	X14	Y14	Z14	X15	Y15	Z15	X16	Y16	Z16	X17	Y17	Z17	X18	Y18	Z18	X19	Y19	Z19	X20	Y20	Z20	X21	Y21	Z21	X22	Y22	Z22	X23	Y23	Z23	X24	Y24	Z24	X25	Y25	Z25	X26	Y26	Z26	X27	Y27	Z27	X28	Y28	Z28	X29	Y29	Z29	X30	Y30	Z30	X31	Y31	Z31	X32	Y32	Z32	X33	Y33	Z33	X34	Y34	Z34	X35	Y35	Z35	X36	Y36	Z36	X37	Y37	Z37	X38	Y38	Z38	X39	Y39	Z39	X40	Y40	Z40	X41	Y41	Z41	X42	Y42	Z42	X43	Y43	Z43	X44	Y44	Z44	X45	Y45	Z45	X46	Y46	Z46	X47	Y47	Z47	X48	Y48	Z48	X49	Y49	Z49	X50	Y50	Z50	
500	2.5000	837.685090	1334.335249	-32.962278	816.213507	1340.646098	-361.869029	809.126754	1405.881176	-176.532313	718.867384	1224.913473	-91.683582	675.794663	1136.887796	120.608741	782.844436	944.613673	-50.402606	644.864653	1147.296748	-496.929457	781.823136	929.030931	-441.829848	233.019273	1267.997219	-255.125919	408.862067	1230.509731	-384.982838	365.180556	1251.727793	-72.717546	407.132404	1173.636388	-345.201020	393.017196	1201.159495	-108.028805	265.261191	1307.042241	-202.800790	278.482820	1302.406744	-295.424130	280.045808	1168.598042	-45.620935	328.445791	1121.107356	-419.631301	382.211546	1025.051166	-25.044437	449.477843	967.380595	-21.719048	478.566940	885.230206	-27.433299	479.811741	988.062592	-27.052244	543.963862	780.639833	-39.479772	536.258284	776.682968	-158.743136	467.569041	670.953124	-18.613929	456.890616	583.636350	-39.839073	404.313741	516.270004	-51.124458	486.010665	578.096544	-67.173301	352.761830	408.363549	-68.035299	375.063818	429.804892	-154.110831	270.419884	388.109560	-115.874693	563.728971	347.030107	-103.002772	471.036928	323.084956	-40.111418	387.029317	999.995257	-418.239676	441.873167	932.434739	-410.802917	472.904714	946.808454	-398.870714	456.507179	844.398603	-410.872715	474.936717	712.993189	-396.440830	458.729010	691.153258	-287.927112	151.126033	443.038570	-409.001358	181.852601	431.824220	-324.688577	104.244545	483.445451	-365.498573	145.469833	271.777933	-420.938474	383.109864	622.325078	-420.539360	331.250891	556.328911	-406.072088	251.102258	517.769634	-411.573429	343.743385	542.108788	-369.148321	208.918694	213.294366	-351.065622	-137.611542	943.818363	-226.393822	17.897594	81.035556	-427.584930	17.872157	80.046026	-29.263463	
501	2.5050	836.648787	1335.488330	-32.579726	816.074327	1339.920729	-362.311633	808.567609	1406.074441	-176.772867	717.021464	1225.276992	-89.182980	675.206824	1137.105429	120.826998	781.269511	943.488763	-50.318798	644.060820	1146.024826	-496.380446	781.326118	929.009829	-440.612498	232.440430	1266.028027	-255.584723	409.161174	1229.734026	-384.236866	364.660077	1249.229468	-71.713407	407.451207	1173.053881	-344.516655	392.384888	1198.616031	-106.558900	264.747731	1304.591734	-202.772475	278.057485	1301.001759	-296.010497	277.959382	1164.809016	-46.474280	330.378351	1120.749976	-420.298974	378.468683	1019.761469	-25.249324	444.855562	961.534311	-20.986700	472.599691	878.818913	-27.523743	475.539505	981.503525	-26.257678	537.362753	773.461071	-39.339843	528.558625	765.777148	-150.897870	462.764955	662.885455	-18.785871	454.034297	575.019862	-40.073826	402.712795	506.954573	-51.121691	483.254836	570.254936	-67.143810	352.779788	398.010870	-68.057278	374.720166	419.054434	-153.621620	270.890257	377.943237	-116.031181	564.037823	335.878793	-102.968781	471.244611	312.234296	-40.164812	389.409206	1000.072352	-418.736832	444.957994	933.174673	-410.744626	475.687515	947.925507	-398.408707	460.670977	845.368541	-410.777377	480.777532	714.976351	-395.571567	463.867088	693.236507	-286.989499	150.966024	453.601395	-408.964751	181.499380	441.984499	-323.999474	103.990649	494.083863	-365.505920	145.221664	282.368409	-420.939269	387.054326	627.142121	-420.067904	333.821066	562.563056	-406.070807	252.834152	525.605744	-410.815989	347.416170	550.157821	-373.123835	208.681665	223.943607	-351.048802	-137.629639	943.809976	-226.436748	17.874415	81.002853	-427.596769	17.831191	80.033932	-29.245481	
502	2.5100	835.624679	1336.989964	-32.239501	816.139009	1338.930903	-362.817154	808.077104	1406.444977	-177.288923	715.047075	1226.026364	-86.834088	674.690697	1137.495618	120.820381	779.975390	942.586378	-50.079524	642.962008	1144.647986	-495.593913	780.382255	929.584824	-441.389903	231.845707	1264.116467	-255.949478	409.337967	1228.889919	-383.332791	364.231338	1246.790634	-70.763011	407.678483	1172.318109	-343.664930	391.897141	1195.941587	-104.810930	264.228097	1302.563155	-203.190649	277.704976	1299.373322	-295.989143	276.175722	1160.920505	-47.049618	332.063112	1120.219854	-420.898326	374.917602	1014.357369	-25.699643	440.310640	954.085955	-22.607075	467.192908	871.903858	-28.555892	471.319325	974.293976	-26.050706	530.917007	766.434633	-39.543458	522.718823	758.803178	-151.578268	457.240254	654.664205	-19.080878	450.343548	566.577487	-40.148368	400.474248	497.547681	-51.414117	479.933200	562.462294	-66.869636	352.413532	387.737091	-68.040384	373.911679	409.082260	-153.486093	270.861862	367.867705	-116.231016	563.898618	324.984491	-102.507009	470.857354	301.249598	-40.276450	391.492606	999.908448	-419.387593	447.916704	933.791850	-410.959827	478.235920	948.843836	-398.038768	464.719084	846.229117	-410.912452	486.591759	717.286743	-394.746806	469.019333	695.072141	-286.271373	151.172692	464.166852	-408.970872	181.522014	452.120832	-323.900064	104.075830	504.628228	-365.607911	145.547844	293.025826	-420.970437	391.275984	632.103184	-419.621824	336.490063	568.497587	-405.825597	254.462386	533.834767	-410.640551	349.999837	555.803441	-373.095812	209.229299	235.040477	-351.184162	-137.671007	943.762215	-226.596085	17.848105	80.951424	-427.611215	17.810242	80.032032	-29.238253	
503	2.5150	834.541109	1338.684107	-32.199875	815.992448	1338.518754	-365.078893	807.565007	1407.068298	-178.131440	712.930759	1227.146010	-84.632311	674.302189	1137.979420	120.615571	778.939411	941.681537	-49.621711	643.524357	1142.854483	-492.170771	780.273717	929.807871	-441.509223	231.234883	1262.362292	-256.171825	409.356815	1228.042343	-382.248331	363.890635	1244.270387	-69.869823	407.739605	1171.397783	-342.904314	391.561166	1193.147856	-102.764199	263.168759	1299.034397	-201.529998	277.116085	1297.626206	-295.692364	274.679856	1156.692304	-47.517666	333.568954	1119.447763	-421.291690	371.461302	1008.587976	-26.115020	436.079583	947.259990	-23.160606	461.623353	864.521265	-29.878240	467.266709	966.969513	-25.518061	524.174472	759.133018	-40.363631	517.035434	750.579093	-151.846984	451.161701	646.362016	-19.428658	445.958609	558.026020	-39.894945	397.739395	487.916758	-51.773353	476.025956	554.260164	-66.601565	351.541706	377.519885	-68.067707	373.220456	398.797873	-153.546265	270.319878	358.144123	-116.365144	562.973207	313.076611	-103.040831	469.951834	290.414326	-40.453591	393.318689	999.566268	-420.101404	450.756432	934.246815	-411.138445	480.634586	949.741083	-397.503205	468.931213	846.961729	-411.183886	492.542451	719.657276	-394.070465	474.739540	696.939467	-285.673500	151.890743	474.721717	-408.974309	181.802640	462.301446	-324.171108	104.531085	515.214863	-365.761788	146.625251	303.735991	-421.130516	395.329053	637.570768	-419.535543	333.196067	572.663385	-410.547466	256.514127	542.111799	-410.392163	351.788866	559.652235	-370.394082	210.501295	245.833722	-351.124630	-137.765281	943.669724	-226.806655	17.835685	80.802329	-427.653280	17.778580	80.006867	-29.260997	
504	2.5200	833.416277	1340.610679	-32.171217	815.659288	1337.590844	-366.357705	807.102987	1407.865102	-179.249703	710.670492	1228.604836	-82.563133	674.048974	1138.494578	120.200732	778.466055	941.065201	-49.077720	641.247762	1141.385088	-492.671959	780.736325	928.104632	-436.662473	230.608530	1260.523861	-256.049389	409.194724	1227.239364	-381.287247	363.634232	1241.528065	-69.037316	407.641890	1170.544319	-342.100426	391.431245	1190.078830	-101.380066	262.663975	1296.698702	-201.518644	276.493580	1295.790201	-295.085085	273.395194	1152.235240	-47.844973	334.788344	1118.611189	-421.467857	368.301987	1002.768208	-26.775501	431.740620	940.041359	-24.040918	455.897784	856.966991	-31.500682	463.332268	959.525871	-25.706972	517.282377	751.451414	-41.425427	507.946775	743.258517	-154.720462	444.989684	637.830074	-19.997934	441.316653	549.449933	-39.938983	394.390810	478.381425	-52.018820	471.640082	545.864177	-66.594916	350.123413	367.513721	-67.928680	371.980971	388.790015	-153.307466	269.079216	348.433815	-116.273632	561.711769	302.762647	-102.218660	468.439009	279.581036	-40.651176	395.171725	999.081101	-420.784386	453.632545	934.783237	-411.186260	482.957432	950.714377	-396.776959	473.362128	847.836296	-411.572315	498.526474	722.315273	-393.209963	480.352056	698.953062	-285.194492	153.044268	485.195201	-409.095569	182.837220	472.551641	-324.091829	105.479563	525.549443	-365.994735	148.382749	314.277390	-421.236040	399.564143	643.165602	-418.900114	336.880067	579.552943	-410.538620	258.957565	550.474960	-410.131463	354.877563	565.523353	-370.692879	212.516261	256.819504	-351.235789	-137.865534	943.555259	-227.075311	17.798323	80.603750	-427.619392	17.750168	79.960222	-29.297816	
